<?xml version="1.0" standalone="no"?>
<!DOCTYPE svg PUBLIC "-//W3C//DTD SVG 20010904//EN"
 "http://www.w3.org/TR/2001/REC-SVG-20010904/DTD/svg10.dtd">
<svg version="1.0" xmlns="http://www.w3.org/2000/svg"
 width="129.000000pt" height="129.000000pt" viewBox="0 0 129.000000 129.000000"
 preserveAspectRatio="xMidYMid meet">
<metadata>
Created by potrace 1.14, written by Peter Selinger 2001-2017
</metadata>
<g transform="translate(0.000000,129.000000) scale(0.100000,-0.100000)"
fill="#000000" stroke="none">
<path d="M279 1188 c-23 -46 -65 -128 -94 -183 -29 -55 -82 -157 -119 -228
l-67 -127 67 -128 c37 -70 90 -172 119 -227 29 -55 71 -137 95 -182 l42 -83
323 0 323 0 108 208 c59 114 131 253 161 309 l53 102 -71 138 c-39 76 -90 174
-114 218 -23 44 -64 122 -90 173 l-47 92 -323 0 -324 0 -42 -82z"/>
</g>
</svg>
